<?xml version="1.0" encoding="utf-8"?>
<!-- Generator: Adobe Illustrator 14.0.0, SVG Export Plug-In . SVG Version: 6.00 Build 43363)  -->
<!DOCTYPE svg PUBLIC "-//W3C//DTD SVG 1.1//EN" "http://www.w3.org/Graphics/SVG/1.1/DTD/svg11.dtd">
<svg version="1.1" id="Layer_1" xmlns="http://www.w3.org/2000/svg" xmlns:xlink="http://www.w3.org/1999/xlink" x="0px" y="0px"
	 width="288px" height="288px" viewBox="0 0 288 288" enable-background="new 0 0 288 288" xml:space="preserve">
<g>
	<path fill="#2F7EB2" d="M64.025,216.434V238h-2.816v-21.566H64.025z"/>
	<path fill="#2F7EB2" d="M82.808,230.129c0,5.728-4,8.223-7.711,8.223c-4.16,0-7.423-3.071-7.423-7.967
		c0-5.151,3.424-8.191,7.68-8.191C79.8,222.193,82.808,225.425,82.808,230.129z M70.553,230.288c0,3.393,1.92,5.952,4.672,5.952
		c2.688,0,4.704-2.528,4.704-6.016c0-2.624-1.312-5.92-4.64-5.92C71.993,224.305,70.553,227.377,70.553,230.288z"/>
	<path fill="#2F7EB2" d="M90.552,218.802h-6.56v-2.368H99.96v2.368h-6.592V238h-2.816V218.802z"/>
	<path fill="#2F7EB2" d="M112.632,231.217l-2.24,6.783h-2.88l7.359-21.566h3.328L125.559,238h-2.976l-2.304-6.783H112.632z
		 M119.735,229.041l-2.144-6.208c-0.48-1.408-0.8-2.688-1.12-3.936h-0.064c-0.32,1.248-0.64,2.592-1.088,3.903l-2.112,6.24H119.735z
		"/>
	<path fill="#2F7EB2" d="M128.632,226.705c0-1.632-0.032-2.912-0.128-4.192H131l0.16,2.561h0.064c0.768-1.44,2.56-2.88,5.12-2.88
		c2.144,0,5.472,1.279,5.472,6.592V238H139v-8.928c0-2.495-0.928-4.575-3.584-4.575c-1.824,0-3.264,1.312-3.775,2.88
		c-0.128,0.352-0.192,0.832-0.192,1.312V238h-2.816V226.705z"/>
	<path fill="#2F7EB2" d="M157.271,234.288c0,1.344,0.063,2.656,0.224,3.712h-2.527l-0.225-1.952h-0.096
		c-0.864,1.216-2.528,2.304-4.735,2.304c-3.136,0-4.736-2.207-4.736-4.447c0-3.744,3.328-5.792,9.312-5.76v-0.319
		c0-1.248-0.352-3.584-3.52-3.552c-1.472,0-2.976,0.416-4.063,1.151l-0.641-1.888c1.28-0.8,3.168-1.344,5.12-1.344
		c4.735,0,5.888,3.231,5.888,6.304V234.288z M154.552,230.097c-3.072-0.064-6.56,0.479-6.56,3.487c0,1.856,1.216,2.688,2.623,2.688
		c2.048,0,3.36-1.28,3.809-2.592c0.096-0.32,0.128-0.641,0.128-0.896V230.097z"/>
	<path fill="#2F7EB2" d="M161.815,215.281h2.816V238h-2.816V215.281z"/>
	<path fill="#2F7EB2" d="M170.392,222.513l3.359,9.151c0.384,1.024,0.769,2.24,1.024,3.168h0.063
		c0.288-0.928,0.608-2.111,0.992-3.231l3.072-9.088h2.976l-4.224,11.04c-2.017,5.312-3.392,7.999-5.312,9.695
		c-1.408,1.184-2.752,1.663-3.456,1.791l-0.704-2.335c0.704-0.225,1.632-0.673,2.464-1.376c0.768-0.608,1.696-1.696,2.368-3.136
		c0.128-0.288,0.224-0.513,0.224-0.672c0-0.16-0.063-0.385-0.224-0.736l-5.696-14.271H170.392z"/>
	<path fill="#2F7EB2" d="M187.831,218.802v3.711h4.032v2.145h-4.032v8.352c0,1.919,0.544,3.008,2.112,3.008
		c0.768,0,1.216-0.064,1.632-0.192l0.128,2.144c-0.544,0.192-1.408,0.384-2.496,0.384c-1.312,0-2.368-0.447-3.04-1.184
		c-0.768-0.864-1.088-2.24-1.088-4.063v-8.447h-2.399v-2.145h2.399v-2.879L187.831,218.802z"/>
	<path fill="#2F7EB2" d="M198.167,218.161c0,0.96-0.672,1.729-1.792,1.729c-1.023,0-1.696-0.769-1.696-1.729s0.704-1.76,1.761-1.76
		C197.463,216.401,198.167,217.17,198.167,218.161z M195.031,238v-15.487h2.815V238H195.031z"/>
	<path fill="#2F7EB2" d="M213.559,237.456c-0.736,0.352-2.368,0.896-4.448,0.896c-4.672,0-7.711-3.167-7.711-7.903
		c0-4.768,3.264-8.255,8.319-8.255c1.663,0,3.136,0.416,3.903,0.832l-0.64,2.144c-0.672-0.352-1.729-0.736-3.264-0.736
		c-3.552,0-5.472,2.656-5.472,5.855c0,3.584,2.304,5.792,5.375,5.792c1.601,0,2.656-0.384,3.456-0.736L213.559,237.456z"/>
	<path fill="#2F7EB2" d="M216.471,235.152c0.864,0.512,2.336,1.088,3.744,1.088c2.016,0,2.976-0.992,2.976-2.304
		c0-1.344-0.8-2.048-2.848-2.816c-2.816-1.023-4.128-2.527-4.128-4.384c0-2.495,2.048-4.543,5.344-4.543
		c1.567,0,2.943,0.416,3.775,0.96l-0.672,2.048c-0.607-0.384-1.728-0.928-3.168-0.928c-1.663,0-2.56,0.96-2.56,2.111
		c0,1.28,0.896,1.855,2.912,2.656c2.655,0.991,4.063,2.336,4.063,4.64c0,2.751-2.144,4.671-5.76,4.671
		c-1.695,0-3.264-0.447-4.352-1.088L216.471,235.152z"/>
	<path fill="#2F7EB2" d="M54.281,254.513l2.08,7.872c0.416,1.728,0.832,3.327,1.12,4.928h0.096c0.352-1.568,0.864-3.232,1.375-4.896
		l2.528-7.904h2.368l2.4,7.744c0.576,1.855,1.024,3.487,1.375,5.056h0.096c0.256-1.568,0.672-3.2,1.184-5.024l2.208-7.775h2.784
		L68.904,270h-2.56l-2.368-7.392c-0.544-1.728-0.992-3.264-1.376-5.088h-0.064c-0.384,1.856-0.864,3.456-1.408,5.12L58.633,270
		h-2.56l-4.672-15.487H54.281z"/>
	<path fill="#2F7EB2" d="M79.849,250.161c0,0.96-0.672,1.729-1.792,1.729c-1.024,0-1.696-0.769-1.696-1.729s0.704-1.76,1.76-1.76
		C79.145,248.401,79.849,249.17,79.849,250.161z M76.713,270v-15.487h2.816V270H76.713z"/>
	<path fill="#2F7EB2" d="M87.593,250.802v3.711h4.032v2.145h-4.032v8.352c0,1.919,0.544,3.008,2.112,3.008
		c0.768,0,1.216-0.064,1.632-0.192l0.128,2.144c-0.544,0.192-1.408,0.384-2.496,0.384c-1.312,0-2.368-0.447-3.04-1.184
		c-0.768-0.864-1.088-2.24-1.088-4.063v-8.447h-2.4v-2.145h2.4v-2.879L87.593,250.802z"/>
	<path fill="#2F7EB2" d="M94.792,247.281h2.816v9.695h0.064c0.448-0.8,1.152-1.535,2.016-2.016c0.832-0.479,1.824-0.768,2.879-0.768
		c2.08,0,5.408,1.279,5.408,6.592V270h-2.816v-8.896c0-2.496-0.928-4.575-3.583-4.575c-1.824,0-3.232,1.279-3.776,2.783
		c-0.16,0.416-0.192,0.832-0.192,1.344V270h-2.816V247.281z"/>
	<path fill="#2F7EB2" d="M137.479,261.2c-0.128-2.783-0.288-6.144-0.256-9.055h-0.096c-0.704,2.624-1.6,5.535-2.56,8.255
		l-3.167,9.344h-3.008l-2.88-9.216c-0.832-2.751-1.6-5.695-2.176-8.383h-0.064c-0.096,2.815-0.224,6.239-0.384,9.184l-0.48,8.671
		h-3.68l1.44-21.566h5.184l2.816,8.671c0.768,2.528,1.44,5.088,1.984,7.488h0.096c0.576-2.336,1.312-4.992,2.144-7.52l2.976-8.64
		h5.12L141.734,270h-3.84L137.479,261.2z"/>
	<path fill="#2F7EB2" d="M150.056,263.889L148.2,270h-4.064l6.912-21.566h5.023L163.079,270h-4.256l-1.952-6.111H150.056z
		 M156.231,260.913l-1.696-5.313c-0.416-1.312-0.768-2.783-1.088-4.031h-0.063c-0.32,1.248-0.672,2.752-1.024,4.031l-1.664,5.313
		H156.231z"/>
	<path fill="#2F7EB2" d="M170.215,251.729h-6.144v-3.296h16.287v3.296h-6.207V270h-3.937V251.729z"/>
	<path fill="#2F7EB2" d="M182.888,248.434h3.936v18.271h8.863V270h-12.799V248.434z"/>
	<path fill="#2F7EB2" d="M202.982,263.889L201.127,270h-4.063l6.911-21.566h5.023L216.006,270h-4.256l-1.951-6.111H202.982z
		 M209.158,260.913l-1.695-5.313c-0.416-1.312-0.769-2.783-1.088-4.031h-0.064c-0.32,1.248-0.672,2.752-1.023,4.031l-1.664,5.313
		H209.158z"/>
	<path fill="#2F7EB2" d="M219.015,248.754c1.248-0.256,3.52-0.48,5.76-0.48c2.88,0,4.703,0.384,6.144,1.376
		c1.344,0.8,2.24,2.208,2.24,4.063c0,1.984-1.248,3.776-3.584,4.64v0.097c2.271,0.575,4.352,2.367,4.352,5.312
		c0,1.92-0.832,3.424-2.048,4.479c-1.536,1.312-4.063,1.983-8.031,1.983c-2.176,0-3.808-0.159-4.832-0.288V248.754z
		 M222.919,257.265h2.016c2.752,0,4.256-1.279,4.256-3.104c0-2.048-1.536-2.976-4.032-2.976c-1.151,0-1.824,0.063-2.239,0.16
		V257.265z M222.919,267.152c0.512,0.096,1.184,0.096,2.079,0.096c2.528,0,4.8-0.928,4.8-3.584c0-2.527-2.208-3.552-4.928-3.552
		h-1.951V267.152z"/>
</g>
<g>
	<path fill="#231F20" d="M31.662,170.872h-8.449v-4.532h22.399v4.532h-8.537V196h-5.413V170.872z"/>
	<path fill="#231F20" d="M48.865,164.756h5.413v12.718h0.088c0.66-1.013,1.584-1.849,2.684-2.421
		c1.101-0.616,2.376-0.968,3.741-0.968c3.652,0,7.481,2.42,7.481,9.285V196h-5.413v-12.058c0-3.081-1.144-5.457-4.137-5.457
		c-2.112,0-3.608,1.408-4.225,3.036c-0.176,0.484-0.22,1.057-0.22,1.629V196h-5.413V164.756z"/>
	<path fill="#231F20" d="M79.797,168.584c0,1.584-1.188,2.904-3.081,2.904c-1.804,0-2.992-1.32-2.992-2.904
		c0-1.672,1.232-2.948,3.036-2.948C78.609,165.636,79.753,166.912,79.797,168.584z M74.032,196v-21.431h5.413V196H74.032z"/>
	<path fill="#231F20" d="M85.296,180.95c0-2.465-0.088-4.533-0.176-6.381h4.709l0.264,3.212h0.132
		c0.968-1.672,3.3-3.696,6.865-3.696c3.741,0,7.613,2.42,7.613,9.197V196h-5.413v-12.102c0-3.081-1.145-5.413-4.093-5.413
		c-2.156,0-3.652,1.54-4.225,3.169c-0.176,0.439-0.264,1.1-0.264,1.716V196h-5.413V180.95z"/>
	<path fill="#231F20" d="M129.871,192.876c0,4.488-0.924,7.7-3.168,9.725c-2.2,1.98-5.325,2.597-8.273,2.597
		c-2.729,0-5.633-0.616-7.481-1.716l1.188-4.093c1.364,0.792,3.652,1.628,6.249,1.628c3.521,0,6.161-1.849,6.161-6.469v-1.849
		h-0.088c-1.232,1.893-3.389,3.169-6.249,3.169c-5.325,0-9.109-4.4-9.109-10.474c0-7.041,4.577-11.31,9.726-11.31
		c3.3,0,5.193,1.584,6.205,3.345h0.088l0.22-2.86h4.709c-0.088,1.452-0.176,3.212-0.176,6.16V192.876z M124.458,183.15
		c0-0.528-0.044-1.013-0.176-1.452c-0.572-1.98-2.112-3.477-4.4-3.477c-3.037,0-5.281,2.64-5.281,6.997
		c0,3.652,1.848,6.601,5.237,6.601c2.024,0,3.784-1.32,4.4-3.301c0.176-0.527,0.22-1.275,0.22-1.892V183.15z"/>
	<path fill="#231F20" d="M135.808,190.104c1.716,1.012,4.401,1.892,7.173,1.892c3.432,0,5.369-1.628,5.369-4.048
		c0-2.245-1.496-3.564-5.237-4.929c-4.929-1.761-8.053-4.357-8.053-8.626c0-4.885,4.049-8.537,10.518-8.537
		c3.213,0,5.545,0.704,7.085,1.496l-1.276,4.357c-1.1-0.572-3.168-1.408-5.94-1.408c-3.433,0-4.885,1.804-4.885,3.564
		c0,2.288,1.716,3.344,5.677,4.885c5.148,1.936,7.613,4.532,7.613,8.801c0,4.797-3.608,8.934-11.222,8.934
		c-3.168,0-6.425-0.881-8.053-1.893L135.808,190.104z"/>
	<path fill="#231F20" d="M158.512,181.698c0-2.816-0.088-5.105-0.176-7.129h4.752l0.265,3.3h0.088
		c1.584-2.42,4.093-3.784,7.349-3.784c4.929,0,9.021,4.225,9.021,10.913c0,7.745-4.885,11.486-9.77,11.486
		c-2.684,0-4.929-1.145-6.028-2.86h-0.088v11.089h-5.413V181.698z M163.925,187.022c0,0.528,0.044,1.013,0.132,1.496
		c0.572,2.2,2.464,3.785,4.797,3.785c3.433,0,5.456-2.86,5.456-7.085c0-3.785-1.848-6.865-5.324-6.865
		c-2.244,0-4.313,1.628-4.885,4.005c-0.088,0.439-0.176,0.924-0.176,1.364V187.022z"/>
	<path fill="#231F20" d="M188.08,186.803c0.132,3.872,3.124,5.545,6.601,5.545c2.509,0,4.269-0.396,5.941-0.969l0.792,3.697
		c-1.849,0.792-4.401,1.364-7.481,1.364c-6.953,0-11.046-4.269-11.046-10.826c0-5.94,3.609-11.529,10.474-11.529
		c6.953,0,9.241,5.721,9.241,10.43c0,1.012-0.088,1.804-0.176,2.288H188.08z M197.497,183.019c0.044-1.98-0.836-5.237-4.444-5.237
		c-3.345,0-4.753,3.036-4.973,5.237H197.497z"/>
	<path fill="#231F20" d="M223.589,190.852c0,1.936,0.089,3.828,0.353,5.148h-4.885l-0.396-2.376h-0.132
		c-1.276,1.672-3.521,2.86-6.337,2.86c-4.313,0-6.732-3.125-6.732-6.381c0-5.369,4.797-8.142,12.718-8.098v-0.352
		c0-1.408-0.572-3.741-4.356-3.741c-2.112,0-4.313,0.66-5.766,1.585l-1.056-3.521c1.584-0.969,4.356-1.893,7.745-1.893
		c6.865,0,8.845,4.356,8.845,9.065V190.852z M218.309,185.526c-3.828-0.044-7.481,0.748-7.481,4.005c0,2.112,1.364,3.08,3.081,3.08
		c2.2,0,3.74-1.408,4.269-2.948c0.132-0.396,0.132-0.792,0.132-1.188V185.526z"/>
	<path fill="#231F20" d="M234.72,183.986h0.088c0.528-0.836,1.145-1.761,1.672-2.509l5.237-6.908h6.513l-7.965,8.757L249.33,196
		h-6.646l-6.161-9.461l-1.804,2.156V196h-5.413v-31.244h5.413V183.986z"/>
	<path fill="#231F20" d="M256.511,170.392v1.634h-2.47v8.701h-1.861v-8.701h-2.432v-1.634H256.511z M265.554,180.727l-0.305-6.041
		c0-0.836-0.038-1.786-0.075-2.926h-0.076c-0.19,1.025-0.418,2.241-0.646,3.077l-1.367,5.737h-1.862l-1.367-5.889
		c-0.114-0.761-0.38-2.014-0.57-2.926h-0.076c0,0.949-0.038,1.976-0.076,2.926l-0.304,6.041h-1.71l0.608-10.335h2.735l1.254,4.901
		c0.19,0.874,0.342,1.558,0.532,2.622h0.038c0.189-0.912,0.38-1.862,0.531-2.546l1.292-4.978h2.622l0.607,10.335H265.554z"/>
</g>
<g>
	<path fill="#2F7EB2" d="M242.073,246.543c0,2.208-1.776,3.96-4.033,3.96c-2.256,0-4.056-1.752-4.056-3.96s1.8-3.937,4.08-3.937
		C240.297,242.606,242.073,244.335,242.073,246.543z M234.992,246.543c0,1.752,1.32,3.145,3.072,3.145c1.704,0.023,3-1.393,3-3.12
		c0-1.753-1.296-3.169-3.048-3.169C236.313,243.398,234.992,244.814,234.992,246.543z M237.416,248.583h-0.912v-3.937
		c0.36-0.048,0.864-0.12,1.513-0.12c0.744,0,1.08,0.12,1.344,0.313c0.24,0.168,0.408,0.456,0.408,0.84
		c0,0.48-0.36,0.792-0.816,0.937v0.048c0.385,0.12,0.576,0.432,0.696,0.96c0.12,0.6,0.216,0.816,0.288,0.96h-0.96
		c-0.12-0.144-0.192-0.479-0.313-0.96c-0.071-0.408-0.312-0.6-0.815-0.6h-0.433V248.583z M237.44,246.375h0.432
		c0.505,0,0.912-0.168,0.912-0.576c0-0.36-0.264-0.6-0.84-0.6c-0.24,0-0.408,0.023-0.504,0.048V246.375z"/>
</g>
<polygon fill="none" stroke="#2F7EB2" stroke-width="10" stroke-miterlimit="10" points="142.5,125.737 105.151,125.737 
	105.151,150.5 73.595,125.737 16.955,125.737 16.955,41.474 142.5,41.474 "/>
<polygon fill="none" stroke="#2F7EB2" stroke-width="10" stroke-miterlimit="10" points="175.092,79 203.624,79 203.624,97.916 
	227.729,79 271,79 271,14.627 175.092,14.627 "/>
</svg>
