<?xml version="1.0" encoding="UTF-8"?>
<!DOCTYPE svg PUBLIC "-//W3C//DTD SVG 1.1//EN" "http://www.w3.org/Graphics/SVG/1.1/DTD/svg11.dtd">
<svg xmlns="http://www.w3.org/2000/svg" version="1.1" width="2000px" height="1125px" style="shape-rendering:geometricPrecision; text-rendering:geometricPrecision; image-rendering:optimizeQuality; fill-rule:evenodd; clip-rule:evenodd" xmlns:xlink="http://www.w3.org/1999/xlink">
<g><path style="opacity:0.989" fill="#fa4616" d="M 39.5,236.5 C 257.167,236.5 474.833,236.5 692.5,236.5C 692.5,454.167 692.5,671.833 692.5,889.5C 474.833,889.5 257.167,889.5 39.5,889.5C 39.5,671.833 39.5,454.167 39.5,236.5 Z M 107.5,306.5 C 279.167,306.333 450.834,306.5 622.5,307C 621.167,477.667 621.167,648.333 622.5,819C 621.975,819.692 621.308,820.192 620.5,820.5C 449.597,820.306 278.764,820.306 108,820.5C 107.5,649.167 107.333,477.834 107.5,306.5 Z"/></g>
<g><path style="opacity:0.965" fill="#fa4616" d="M 488.5,377.5 C 488.435,377.938 488.601,378.272 489,378.5C 490.167,377.333 491.333,376.167 492.5,375C 492.272,374.601 491.938,374.435 491.5,374.5C 493.958,372.57 496.291,370.404 498.5,368C 520.906,357.562 540.239,361.395 556.5,379.5C 570.602,406.961 564.936,428.461 539.5,444C 530.846,447.319 521.846,448.319 512.5,447C 483.269,437.189 473.102,417.022 482,386.5C 484.438,383.657 486.604,380.657 488.5,377.5 Z"/></g>
<g><path style="opacity:0.769" fill="#fa4f22" d="M 491.5,374.5 C 491.938,374.435 492.272,374.601 492.5,375C 491.333,376.167 490.167,377.333 489,378.5C 488.601,378.272 488.435,377.938 488.5,377.5C 489.167,376.167 490.167,375.167 491.5,374.5 Z"/></g>
<g><path style="opacity:0.881" fill="#fa4616" d="M 1833.5,401.5 C 1832.5,421.454 1832.17,442.787 1832.5,465.5C 1828.49,465.334 1824.49,465.501 1820.5,466C 1824.82,466.499 1829.15,466.666 1833.5,466.5C 1829.03,467.486 1824.36,467.819 1819.5,467.5C 1819.5,445.5 1819.5,423.5 1819.5,401.5C 1811.83,401.5 1804.17,401.5 1796.5,401.5C 1796.2,396.57 1796.53,391.737 1797.5,387C 1816.5,386.5 1835.5,386.333 1854.5,386.5C 1854.5,391.5 1854.5,396.5 1854.5,401.5C 1847.5,401.5 1840.5,401.5 1833.5,401.5 Z"/></g>
<g><path style="opacity:0.925" fill="#fa4616" d="M 1913.5,442.5 C 1913.81,443.738 1914.31,443.738 1915,442.5C 1915.69,441.563 1915.53,440.897 1914.5,440.5C 1919.37,428.322 1924.7,415.988 1930.5,403.5C 1930.81,404.738 1931.31,404.738 1932,403.5C 1932.69,402.563 1932.53,401.897 1931.5,401.5C 1933.35,396.399 1935.35,391.399 1937.5,386.5C 1942.83,386.5 1948.17,386.5 1953.5,386.5C 1953.5,413.5 1953.5,440.5 1953.5,467.5C 1948.83,467.5 1944.17,467.5 1939.5,467.5C 1939.67,449.83 1939.5,432.164 1939,414.5C 1932,431.833 1925,449.167 1918,466.5C 1913.88,467.798 1909.72,467.798 1905.5,466.5C 1898.03,449.497 1890.53,432.164 1883,414.5C 1882.5,432.164 1882.33,449.83 1882.5,467.5C 1877.64,467.819 1872.97,467.486 1868.5,466.5C 1872.85,466.666 1877.18,466.499 1881.5,466C 1877.51,465.501 1873.51,465.334 1869.5,465.5C 1869.83,439.661 1869.5,413.995 1868.5,388.5C 1870.92,387.186 1873.75,386.519 1877,386.5C 1879.83,386.667 1882.67,386.833 1885.5,387C 1886,387.5 1886.5,388 1887,388.5C 1894.46,406.404 1901.46,424.071 1908,441.5C 1909.25,443.001 1910.25,444.668 1911,446.5C 1911.93,445.142 1912.77,443.808 1913.5,442.5 Z"/></g>
<g><path style="opacity:0.982" fill="#fa4616" d="M 1615.5,506.5 C 1615.43,506.938 1615.6,507.272 1616,507.5C 1617.5,506 1619,504.5 1620.5,503C 1620.27,502.601 1619.94,502.435 1619.5,502.5C 1619.29,500.821 1619.95,499.821 1621.5,499.5C 1621.43,499.938 1621.6,500.272 1622,500.5C 1623.17,499.333 1624.33,498.167 1625.5,497C 1625.27,496.601 1624.94,496.435 1624.5,496.5C 1624.83,495.5 1625.5,494.833 1626.5,494.5C 1626.9,495.525 1627.56,495.692 1628.5,495C 1630.54,492.626 1632.87,490.626 1635.5,489C 1634.91,488.536 1634.24,488.369 1633.5,488.5C 1635.94,487.101 1638.28,485.434 1640.5,483.5C 1641.74,482.754 1643.07,482.421 1644.5,482.5C 1644.56,483.043 1644.89,483.376 1645.5,483.5C 1647.12,482.846 1648.78,482.346 1650.5,482C 1649.21,481.51 1647.87,481.343 1646.5,481.5C 1656.17,477 1666.51,474.5 1677.5,474C 1678,473.5 1678.5,473 1679,472.5C 1686.33,473.833 1693.67,473.833 1701,472.5C 1701.5,473 1702,473.5 1702.5,474C 1728.68,475.596 1751.02,485.429 1769.5,503.5C 1768.45,503.351 1767.45,503.517 1766.5,504C 1770.25,505.919 1773.59,508.419 1776.5,511.5C 1781.32,515.655 1784.99,520.655 1787.5,526.5C 1786.29,527.497 1786.45,528.497 1788,529.5C 1788.4,529.272 1788.57,528.938 1788.5,528.5C 1791.46,532.836 1793.96,537.502 1796,542.5C 1796.98,544.74 1797.48,547.073 1797.5,549.5C 1796.96,549.56 1796.62,549.893 1796.5,550.5C 1796.99,552.026 1797.66,553.359 1798.5,554.5C 1800.07,555.681 1800.9,557.347 1801,559.5C 1801.83,564.143 1802.5,568.81 1803,573.5C 1803.83,630.17 1803.67,686.836 1802.5,743.5C 1801.91,743.709 1801.41,744.043 1801,744.5C 1778.9,743.838 1756.73,743.172 1734.5,742.5C 1734.29,741.914 1733.96,741.414 1733.5,741C 1733.92,693.458 1734.25,645.958 1734.5,598.5C 1733.85,589.795 1732.85,581.128 1731.5,572.5C 1724.71,548.535 1709.04,534.702 1684.5,531C 1663.69,528.905 1645.52,534.738 1630,548.5C 1627.46,551.697 1624.96,554.864 1622.5,558C 1622.83,558.333 1623.17,558.667 1623.5,559C 1620.69,563.29 1618.35,567.79 1616.5,572.5C 1615.35,572.791 1614.68,573.624 1614.5,575C 1614.53,576.07 1614.86,576.903 1615.5,577.5C 1614.05,584.738 1613.22,592.072 1613,599.5C 1612.5,647.832 1612.33,696.166 1612.5,744.5C 1589.5,744.5 1566.5,744.5 1543.5,744.5C 1543.5,625.833 1543.5,507.167 1543.5,388.5C 1566.5,388.5 1589.5,388.5 1612.5,388.5C 1612.33,428.835 1612.5,469.168 1613,509.5C 1613.85,508.429 1614.69,507.429 1615.5,506.5 Z"/></g>
<g><path style="opacity:0.886" fill="#fb4a1c" d="M 1868.5,388.5 C 1869.5,413.995 1869.83,439.661 1869.5,465.5C 1873.51,465.334 1877.51,465.501 1881.5,466C 1877.18,466.499 1872.85,466.666 1868.5,466.5C 1868.5,440.5 1868.5,414.5 1868.5,388.5 Z"/></g>
<g><path style="opacity:0.886" fill="#fb4a1c" d="M 1833.5,401.5 C 1833.5,423.167 1833.5,444.833 1833.5,466.5C 1829.15,466.666 1824.82,466.499 1820.5,466C 1824.49,465.501 1828.49,465.334 1832.5,465.5C 1832.17,442.787 1832.5,421.454 1833.5,401.5 Z"/></g>
<g><path style="opacity:0.98" fill="#fa4616" d="M 1378.5,475.5 C 1378.5,451.167 1378.5,426.833 1378.5,402.5C 1401.83,402.5 1425.17,402.5 1448.5,402.5C 1448.5,426.833 1448.5,451.167 1448.5,475.5C 1467.83,475.5 1487.17,475.5 1506.5,475.5C 1506.5,495.5 1506.5,515.5 1506.5,535.5C 1487.17,535.5 1467.83,535.5 1448.5,535.5C 1448.33,576.168 1448.5,616.835 1449,657.5C 1449.24,669.169 1454.74,677.003 1465.5,681C 1479.46,682.388 1493.46,682.888 1507.5,682.5C 1507.5,702.833 1507.5,723.167 1507.5,743.5C 1490.16,743.667 1472.83,743.5 1455.5,743C 1438.58,741.855 1422.91,736.855 1408.5,728C 1406.54,725.193 1404.04,723.027 1401,721.5C 1400.67,720.5 1400.33,719.5 1400,718.5C 1396.14,716.177 1393.3,713.01 1391.5,709C 1383.75,693.807 1379.59,677.973 1379,661.5C 1378.5,619.501 1378.33,577.501 1378.5,535.5C 1367.92,535.82 1357.42,535.487 1347,534.5C 1346.5,514.836 1346.33,495.169 1346.5,475.5C 1357.17,475.5 1367.83,475.5 1378.5,475.5 Z"/></g>
<g><path style="opacity:0.886" fill="#fa4d1f" d="M 1931.5,401.5 C 1932.53,401.897 1932.69,402.563 1932,403.5C 1931.31,404.738 1930.81,404.738 1930.5,403.5C 1930.83,402.833 1931.17,402.167 1931.5,401.5 Z"/></g>
<g><path style="opacity:0.985" fill="#fa4616" d="M 233.5,424.5 C 231.036,427.866 231.036,431.2 233.5,434.5C 233.586,445.848 233.586,457.181 233.5,468.5C 232.773,474.189 232.106,480.022 231.5,486C 232.102,491.645 232.769,497.145 233.5,502.5C 233.5,518.833 233.5,535.167 233.5,551.5C 232.754,555.852 232.087,560.352 231.5,565C 231.954,567.03 232.62,568.863 233.5,570.5C 233.333,586.837 233.5,603.17 234,619.5C 235.787,631.425 239.453,642.758 245,653.5C 249.558,658.717 254.058,663.884 258.5,669C 264.944,672.365 271.444,675.532 278,678.5C 278.893,677.919 279.893,677.585 281,677.5C 289.903,680.077 299.069,681.077 308.5,680.5C 312.372,681.56 316.372,681.393 320.5,680C 318.866,679.506 317.199,679.34 315.5,679.5C 316.585,677.418 318.085,677.084 320,678.5C 322.709,676.355 325.876,675.188 329.5,675C 339.567,669.433 347.901,661.933 354.5,652.5C 356.105,651.994 356.439,651.327 355.5,650.5C 356.066,647.127 357.399,644.127 359.5,641.5C 361.382,640.779 361.715,639.779 360.5,638.5C 361.87,631.711 363.203,625.044 364.5,618.5C 364.81,619.738 365.31,619.738 366,618.5C 366.832,547.332 366.665,476.332 365.5,405.5C 376.647,404.168 388.147,403.501 400,403.5C 411.74,403.505 423.407,403.838 435,404.5C 435.833,476.502 435.667,548.502 434.5,620.5C 432.698,652.271 422.531,680.271 404,704.5C 381.12,729.354 352.62,743.187 318.5,746C 287.889,749.58 258.556,745.247 230.5,733C 208.406,720.906 191.74,703.573 180.5,681C 172.005,662.758 167.005,643.258 165.5,622.5C 166.833,550.167 166.833,477.833 165.5,405.5C 176.313,404.168 187.479,403.501 199,403.5C 210.167,403.833 221.333,404.167 232.5,404.5C 233.462,411.108 233.795,417.774 233.5,424.5 Z"/></g>
<g><path style="opacity:0.98" fill="#fa4616" d="M 978.5,433.5 C 977.957,433.56 977.624,433.893 977.5,434.5C 978.257,435.773 978.923,435.773 979.5,434.5C 989.733,443.102 997.567,453.436 1003,465.5C 1015.76,498.836 1016.76,532.502 1006,566.5C 991.626,598.835 967.793,619.835 934.5,629.5C 919.782,632.77 905.449,634.937 891.5,636C 871.836,636.5 852.169,636.667 832.5,636.5C 832.5,672.5 832.5,708.5 832.5,744.5C 809.167,744.5 785.833,744.5 762.5,744.5C 762.333,631.166 762.5,517.833 763,404.5C 809.763,403.336 856.596,403.17 903.5,404C 913.764,405.468 924.098,407.135 934.5,409C 943.829,412.414 952.996,416.247 962,420.5C 967.957,424.231 973.457,428.565 978.5,433.5 Z M 937.5,547.5 C 936.89,548.391 936.557,549.391 936.5,550.5C 934.207,553.061 932.373,556.061 931,559.5C 920.919,570.215 908.419,576.382 893.5,578C 872.836,578.5 852.169,578.667 831.5,578.5C 831.5,539.5 831.5,500.5 831.5,461.5C 851.503,461.333 871.503,461.5 891.5,462C 907.125,463.071 920.292,469.571 931,481.5C 934.601,487.915 937.601,494.581 940,501.5C 941.007,511.369 941.84,521.203 942.5,531C 940.403,536.275 938.736,541.775 937.5,547.5 Z"/></g>
<g><path style="opacity:0.886" fill="#fa491a" d="M 165.5,405.5 C 166.833,477.833 166.833,550.167 165.5,622.5C 165.5,550.167 165.5,477.833 165.5,405.5 Z"/></g>
<g><path style="opacity:0.886" fill="#fa491a" d="M 365.5,405.5 C 366.665,476.332 366.832,547.332 366,618.5C 365.31,619.738 364.81,619.738 364.5,618.5C 364.404,547.618 364.738,476.618 365.5,405.5 Z"/></g>
<g><path style="opacity:0.886" fill="#fa4b1d" d="M 233.5,424.5 C 233.5,427.833 233.5,431.167 233.5,434.5C 231.036,431.2 231.036,427.866 233.5,424.5 Z"/></g>
<g><path style="opacity:0.886" fill="#fa4d1f" d="M 978.5,433.5 C 979.167,433.5 979.5,433.833 979.5,434.5C 978.923,435.773 978.257,435.773 977.5,434.5C 977.624,433.893 977.957,433.56 978.5,433.5 Z"/></g>
<g><path style="opacity:0.886" fill="#fa4d1f" d="M 1914.5,440.5 C 1915.53,440.897 1915.69,441.563 1915,442.5C 1914.31,443.738 1913.81,443.738 1913.5,442.5C 1913.83,441.833 1914.17,441.167 1914.5,440.5 Z"/></g>
<g><path style="opacity:0.982" fill="#fa4616" d="M 1223.5,494.5 C 1222.76,494.369 1222.09,494.536 1221.5,495C 1226.3,498.799 1230.8,502.966 1235,507.5C 1235.4,507.272 1235.57,506.938 1235.5,506.5C 1237.86,508.713 1239.69,511.379 1241,514.5C 1241.5,501.504 1241.67,488.504 1241.5,475.5C 1264.83,475.5 1288.17,475.5 1311.5,475.5C 1311.5,565.167 1311.5,654.833 1311.5,744.5C 1288.17,744.5 1264.83,744.5 1241.5,744.5C 1241.67,732.829 1241.5,721.162 1241,709.5C 1232.23,723.186 1220.06,733.019 1204.5,739C 1183.4,746.083 1161.74,748.417 1139.5,746C 1094.54,739.054 1062.88,714.721 1044.5,673C 1044.83,672.667 1045.17,672.333 1045.5,672C 1042.56,666.606 1040.23,660.939 1038.5,655C 1038.83,654.667 1039.17,654.333 1039.5,654C 1037.44,650.205 1036.27,646.038 1036,641.5C 1035.2,629.798 1034.04,618.132 1032.5,606.5C 1033.57,576.069 1042.4,547.736 1059,521.5C 1063,516.665 1067.17,511.998 1071.5,507.5C 1071.43,507.938 1071.6,508.272 1072,508.5C 1072.9,507.299 1074.07,506.465 1075.5,506C 1074.91,505.536 1074.24,505.369 1073.5,505.5C 1077.71,501.448 1082.05,497.615 1086.5,494C 1089.52,492.489 1092.52,490.989 1095.5,489.5C 1095.43,489.938 1095.6,490.272 1096,490.5C 1098.66,489.526 1098.83,488.859 1096.5,488.5C 1110.92,479.988 1126.58,475.154 1143.5,474C 1144,473.5 1144.5,473 1145,472.5C 1152.33,473.833 1159.67,473.833 1167,472.5C 1167.5,473 1168,473.5 1168.5,474C 1189.31,474.954 1207.64,481.787 1223.5,494.5 Z M 1241.5,621.5 C 1240.55,622.919 1240.22,624.585 1240.5,626.5C 1236.39,642.164 1228.39,655.997 1216.5,668C 1211.05,671.12 1205.89,674.62 1201,678.5C 1200.67,678.167 1200.33,677.833 1200,677.5C 1194.75,680.828 1188.92,682.661 1182.5,683C 1182,683.5 1181.5,684 1181,684.5C 1175.67,684.5 1170.33,684.5 1165,684.5C 1147.03,680.545 1132.03,671.545 1120,657.5C 1118.57,653.623 1116.4,650.289 1113.5,647.5C 1113.17,646.167 1112.83,644.833 1112.5,643.5C 1098.33,608.658 1104.33,577.825 1130.5,551C 1159.47,528.703 1188.47,529.036 1217.5,552C 1228.5,563.176 1236,576.342 1240,591.5C 1241.3,601.455 1241.8,611.455 1241.5,621.5 Z"/></g>
<g><path style="opacity:0.984" fill="#fa4616" d="M 486.5,475.5 C 509.833,475.5 533.167,475.5 556.5,475.5C 556.5,564.833 556.5,654.167 556.5,743.5C 533.167,743.5 509.833,743.5 486.5,743.5C 486.5,654.167 486.5,564.833 486.5,475.5 Z"/></g>
<g><path style="opacity:0.886" fill="#fb4e20" d="M 1378.5,475.5 C 1379.04,475.56 1379.38,475.893 1379.5,476.5C 1378.28,477.614 1376.94,477.781 1375.5,477C 1376.74,476.768 1377.74,476.268 1378.5,475.5 Z"/></g>
<g><path style="opacity:0.886" fill="#fa4c1e" d="M 1646.5,481.5 C 1647.87,481.343 1649.21,481.51 1650.5,482C 1648.78,482.346 1647.12,482.846 1645.5,483.5C 1644.89,483.376 1644.56,483.043 1644.5,482.5C 1644.84,481.662 1645.51,481.328 1646.5,481.5 Z"/></g>
<g><path style="opacity:0.886" fill="#fa4a1c" d="M 233.5,468.5 C 233.5,479.833 233.5,491.167 233.5,502.5C 232.769,497.145 232.102,491.645 231.5,486C 232.106,480.022 232.773,474.189 233.5,468.5 Z"/></g>
<g><path style="opacity:0.769" fill="#fa5124" d="M 1096.5,488.5 C 1098.83,488.859 1098.66,489.526 1096,490.5C 1095.6,490.272 1095.43,489.938 1095.5,489.5C 1095.5,488.833 1095.83,488.5 1096.5,488.5 Z"/></g>
<g><path style="opacity:0.769" fill="#fa4f22" d="M 1633.5,488.5 C 1634.24,488.369 1634.91,488.536 1635.5,489C 1632.87,490.626 1630.54,492.626 1628.5,495C 1627.56,495.692 1626.9,495.525 1626.5,494.5C 1628.81,492.529 1631.14,490.529 1633.5,488.5 Z"/></g>
<g><path style="opacity:0.769" fill="#fa4f22" d="M 1624.5,496.5 C 1624.94,496.435 1625.27,496.601 1625.5,497C 1624.33,498.167 1623.17,499.333 1622,500.5C 1621.6,500.272 1621.43,499.938 1621.5,499.5C 1622.17,498.167 1623.17,497.167 1624.5,496.5 Z"/></g>
<g><path style="opacity:0.886" fill="#fa4d1f" d="M 1223.5,494.5 C 1227.83,498.167 1231.83,502.167 1235.5,506.5C 1235.57,506.938 1235.4,507.272 1235,507.5C 1230.8,502.966 1226.3,498.799 1221.5,495C 1222.09,494.536 1222.76,494.369 1223.5,494.5 Z"/></g>
<g><path style="opacity:0.769" fill="#fa4f22" d="M 1619.5,502.5 C 1619.94,502.435 1620.27,502.601 1620.5,503C 1619,504.5 1617.5,506 1616,507.5C 1615.6,507.272 1615.43,506.938 1615.5,506.5C 1616.5,504.833 1617.83,503.5 1619.5,502.5 Z"/></g>
<g><path style="opacity:0.886" fill="#fa4d1f" d="M 1769.5,503.5 C 1772.57,505.569 1774.91,508.236 1776.5,511.5C 1773.59,508.419 1770.25,505.919 1766.5,504C 1767.45,503.517 1768.45,503.351 1769.5,503.5 Z"/></g>
<g><path style="opacity:0.769" fill="#fa5023" d="M 1073.5,505.5 C 1074.24,505.369 1074.91,505.536 1075.5,506C 1074.07,506.465 1072.9,507.299 1072,508.5C 1071.6,508.272 1071.43,507.938 1071.5,507.5C 1071.83,506.5 1072.5,505.833 1073.5,505.5 Z"/></g>
<g><path style="opacity:0.886" fill="#fa4d1f" d="M 1787.5,526.5 C 1787.83,527.167 1788.17,527.833 1788.5,528.5C 1788.57,528.938 1788.4,529.272 1788,529.5C 1786.45,528.497 1786.29,527.497 1787.5,526.5 Z"/></g>
<g><path style="opacity:0.886" fill="#fa4d1f" d="M 937.5,547.5 C 938.715,548.779 938.382,549.779 936.5,550.5C 936.557,549.391 936.89,548.391 937.5,547.5 Z"/></g>
<g><path style="opacity:0.886" fill="#fa4d20" d="M 1797.5,549.5 C 1798.45,550.919 1798.78,552.585 1798.5,554.5C 1797.66,553.359 1796.99,552.026 1796.5,550.5C 1796.62,549.893 1796.96,549.56 1797.5,549.5 Z"/></g>
<g><path style="opacity:0.886" fill="#fa4a1d" d="M 233.5,551.5 C 233.5,557.833 233.5,564.167 233.5,570.5C 232.62,568.863 231.954,567.03 231.5,565C 232.087,560.352 232.754,555.852 233.5,551.5 Z"/></g>
<g><path style="opacity:0.886" fill="#fa4d20" d="M 1616.5,572.5 C 1615.96,574.117 1615.63,575.784 1615.5,577.5C 1614.86,576.903 1614.53,576.07 1614.5,575C 1614.68,573.624 1615.35,572.791 1616.5,572.5 Z"/></g>
<g><path style="opacity:0.769" fill="#fa5326" d="M 1241.5,621.5 C 1241.94,621.435 1242.27,621.601 1242.5,622C 1242.03,624.283 1241.36,625.783 1240.5,626.5C 1240.22,624.585 1240.55,622.919 1241.5,621.5 Z"/></g>
<g><path style="opacity:0.769" fill="#fa4e20" d="M 360.5,638.5 C 361.715,639.779 361.382,640.779 359.5,641.5C 359.062,641.565 358.728,641.399 358.5,641C 359.381,640.292 360.047,639.458 360.5,638.5 Z"/></g>
<g><path style="opacity:0.769" fill="#fa5124" d="M 1112.5,643.5 C 1112.83,644.833 1113.17,646.167 1113.5,647.5C 1111.48,646.462 1111.15,645.128 1112.5,643.5 Z"/></g>
<g><path style="opacity:0.769" fill="#fa5023" d="M 355.5,650.5 C 356.439,651.327 356.105,651.994 354.5,652.5C 354.328,651.508 354.662,650.842 355.5,650.5 Z"/></g>
<g><path style="opacity:0.886" fill="#fa4a1c" d="M 315.5,679.5 C 317.199,679.34 318.866,679.506 320.5,680C 316.372,681.393 312.372,681.56 308.5,680.5C 310.607,679.532 312.941,679.198 315.5,679.5 Z"/></g>
</svg>
